<svg width="567.7" height="70.4" viewBox="0 0 567.7 70.4" xmlns="http://www.w3.org/2000/svg"><g id="svgGroup" stroke-linecap="round" fill-rule="evenodd" font-size="9pt" stroke="#000" stroke-width="0" fill="#ffffff" style="stroke:#000;stroke-width:0;fill:#ffffff"><path d="M 189.9 70.4 L 222.4 0 L 209.5 0 L 184.8 54 L 160.4 0 L 150.5 0 L 125.8 54 L 101.3 0 L 88.5 0 L 120.9 70.4 L 130.6 70.4 L 155.5 16.4 L 179.9 70.4 L 189.9 70.4 Z M 567.7 70.4 L 567.7 0 L 554.4 0 L 554.4 28 L 496.8 28 L 496.8 0 L 483.5 0 L 483.5 70.4 L 496.8 70.4 L 496.8 38.4 L 554.4 38.4 L 554.4 70.4 L 567.7 70.4 Z M 308.1 70.4 L 261.6 0 L 251.9 0 L 205.1 70.4 L 219.9 70.4 L 256.8 13.7 L 293.1 70.4 L 308.1 70.4 Z M 50.2 70.4 L 50.2 10.4 L 86.1 10.4 L 86.1 0 L 0 0 L 0 10.4 L 36.9 10.4 L 36.9 70.4 L 50.2 70.4 Z M 474.2 27.4 L 474.2 17 C 474.2 8.166 469.533 1.78 457.655 0.318 A 45.571 45.571 0 0 0 452.1 0 L 394.4 0 L 394.4 70.4 L 407.7 70.4 L 407.7 44.4 L 452.1 44.4 A 42.046 42.046 0 0 0 459.64 43.781 C 470.056 41.876 474.2 35.725 474.2 27.4 Z M 385.1 70.4 L 385.1 60 L 328 60 L 328 0 L 314.6 0 L 314.6 70.4 L 385.1 70.4 Z M 452.1 34 L 407.7 34 L 407.7 10.4 L 452.1 10.4 C 457.975 10.4 460.782 12.606 460.896 16.641 A 9.174 9.174 0 0 1 460.9 16.9 L 460.9 27.5 A 6.529 6.529 0 0 1 460.154 30.719 C 459.209 32.418 457.352 33.487 454.513 33.856 A 18.786 18.786 0 0 1 452.1 34 Z" vector-effect="non-scaling-stroke"/></g></svg>